<svg xmlns="http://www.w3.org/2000/svg" aria-hidden="true" style="position:absolute;width:0;height:0;overflow:hidden">
  <defs>
    <symbol id="icon-antenna" viewBox="0 0 24 24">
      <path fill="#2e2f42" d="m23.08 16.573-6.332-6.379.703-3.461c.181.07.374.108.569.109h.024a1.62 1.62 0 1 0-1.522-1.065l-.004-.011-3.72.454L6.73.121a.401.401 0 0 0-.282-.12.398.398 0 0 0-.28.116L5.034 1.245a.399.399 0 0 0 0 .566l.611.619a11.07 11.07 0 0 0-1.362 5.354c0 3.079 1.242 5.869 3.252 7.894l-.001-.001a.4.4 0 0 0 .109.073 2.263 2.263 0 0 0-.039.409V20.8h-4.8a2.004 2.004 0 0 0-2.001 2v.8a.4.4 0 0 0 .4.4h18.4a.4.4 0 0 0 .4-.4v-.8a2.003 2.003 0 0 0-2-2h-4.8v-2.057a11.078 11.078 0 0 0 7.624-1.127l-.058.029.614.617a.4.4 0 0 0 .282.12.4.4 0 0 0 .28-.116l1.134-1.128a.399.399 0 0 0 0-.566zM17.46 4.675a.8.8 0 1 1 .564 1.368h-.002a.8.8 0 0 1-.56-1.367h-.002zm-.942 2.628-.449 2.209-.882-.886 1.331-1.323zm-.454-.676-1.44 1.431-1.114-1.12 2.554-.311zM18.003 21.6a1.2 1.2 0 0 1 1.2 1.2v.4h-17.6v-.4a1.2 1.2 0 0 1 1.2-1.2h15.2zm-5.6-1.6v.8h-4V20h4zm-4-.8v-3.04c0-.97.897-1.76 2-1.76s2 .79 2 1.76v3.04h-4zm4.8-1.272V16.16c0-1.412-1.256-2.56-2.8-2.56h-.044c-1.014 0-1.905.53-2.41 1.328l-.007.012a10.362 10.362 0 0 1-2.858-7.162c0-1.736.425-3.372 1.177-4.811l-.027.057 13.951 14.031a10.23 10.23 0 0 1-4.7 1.127c-.809 0-1.596-.093-2.352-.268l.07.014zm8.467-.513L5.877 1.53l.566-.564 5.951 5.985c.003 0 .004.005.007.007l9.836 9.893-.568.564z" style="fill:var(--color1, #2e2f42)"/>
      <path fill="#4d5ae5" d="M10.407 15.2h-.006a1.2 1.2 0 0 0-.002 2.4h.006a1.2 1.2 0 0 0 .002-2.4zm.28 1.484a.4.4 0 0 1-.682-.284v-.002a.401.401 0 0 1 .398-.398.4.4 0 0 1 .28.683h.004z" style="fill:var(--color2, #4d5ae5)"/>
    </symbol>
    <symbol id="icon-astronaut" viewBox="0 0 24 24">
      <path fill="#4d5ae5" d="M23.98 3.393a.403.403 0 0 0-.32-.272h-.002l-1.433-.208-.641-1.298c-.134-.274-.582-.274-.717 0l-.641 1.298-1.432.209a.4.4 0 0 0-.222.682l1.037 1.011-.245 1.427a.4.4 0 0 0 .581.421l1.282-.674 1.281.674a.401.401 0 0 0 .581-.424v.002l-.244-1.427 1.037-1.011a.398.398 0 0 0 .101-.413l.001.003zm-1.847.995a.4.4 0 0 0-.115.354l.143.835-.75-.394a.394.394 0 0 0-.375.001l.002-.001-.75.394.143-.835a.399.399 0 0 0-.114-.354l-.608-.592.839-.122a.399.399 0 0 0 .301-.219l.375-.76.376.76a.4.4 0 0 0 .302.219l.839.122-.607.592zM19.6 15.391h-.8v.8h.8v-.8zm0 1.601h-.8v.8h.8v-.801z" style="fill:var(--color2, #4d5ae5)"/>
      <path fill="#4d5ae5" d="M20.4 16.192h-.8v.8h.8v-.8zm-1.6 0H18v.8h.8v-.8zm-2 3.6H16v.8h.8v-.8zm0 1.6H16v.8h.8v-.8zm.8-.8h-.8v.8h.8v-.801zM16 20.592h-.8v.8h.8v-.801zm-4-2.4h-.8v.8h.8v-.801zm0 1.6h-.8v.8h.8v-.8zm.8-.8H12v.8h.8v-.8zm-1.6 0h-.8v.8h.8v-.8zM4.4 4.591h-.8v.8h.8v-.8zm0 1.6h-.8v.8h.8v-.8zm.8-.8h-.8v.8h.8v-.8zm-1.6 0h-.8v.8h.8v-.8z" style="fill:var(--color2, #4d5ae5)"/>
      <path fill="#2e2f42" d="M18.536 10.62a1.336 1.336 0 0 0-.884-.528l-.007-.001a1.333 1.333 0 0 0-1.008.266l.003-.002-.939.72-1.424 1.063-1.018-.406c1.816-.814 3.085-2.631 3.085-4.74 0-2.867-2.342-5.2-5.221-5.2s-5.221 2.332-5.221 5.2c0 1.039.311 2.005.84 2.819l-2.077-.018c-.006 0-.011.003-.018.004a.392.392 0 0 0-.116.023l-.029.01c-.005.002-.009.002-.014.005l-2.425 1.197-1.42.683a.273.273 0 0 0-.048.027l.001-.001a1.337 1.337 0 0 0-.445 1.729l-.003-.007c.165.322.446.559.792.667a1.334 1.334 0 0 0 1.041-.1l-.007.003 1.041-.553 1.698-.877 1.018-.006-4.082 4.061-.001.001-1.004 1a1.233 1.233 0 0 0-.367.88v.004a1.248 1.248 0 0 0 1.251 1.248c.32 0 .641-.121.885-.364l.986-.981 1.305-.975.676.673-2.326 2.316a1.234 1.234 0 0 0-.368.88v.004a1.253 1.253 0 0 0 1.253 1.248c.321 0 .641-.122.885-.364l2.612-2.6.001-.002.757-.75-.003-.003c.005-.005.012-.006.017-.012l3.875-4.244 2.603.37a.4.4 0 0 0 .2-.026l-.003.001a.326.326 0 0 0 .038-.018c.014-.007.029-.011.043-.02l2.41-1.6c.009-.006.014-.015.022-.022s.021-.01.03-.019l.954-.894a1.332 1.332 0 0 0 .156-1.774l.002.003zM1.597 13.328a.533.533 0 0 1-.419.039.534.534 0 0 1-.161-.944l.001-.001.985-.474.237.693.1.291-.744.396zm2.624-1.371-1.161.6-.191-.56-.138-.402 1.52-.75-.03 1.113zm11.324-4.966c0 .689-.164 1.339-.449 1.92L11.96 7.487a1.398 1.398 0 0 0-.587-1.038l-.004-.003 1.098-3.645c1.783.567 3.078 2.23 3.078 4.19zm-8.841 0c0-2.426 1.983-4.4 4.421-4.4.19 0 .375.016.559.039L10.61 6.195c-.014 0-.028-.004-.043-.004-.774 0-1.402.626-1.404 1.4.002.774.63 1.4 1.404 1.4.521 0 .971-.287 1.213-.708l2.897 1.316a4.419 4.419 0 0 1-3.552 1.793c-2.438 0-4.421-1.974-4.421-4.4zm4.467.6c0 .331-.271.6-.604.6h-.002a.603.603 0 0 1-.603-.6c0-.331.271-.6.605-.6s.604.269.604.6zM1.848 18.86a.457.457 0 0 1-.641.001.443.443 0 0 1 0-.634l.722-.719.638.636-.719.716zm2.411 2.8a.453.453 0 0 1-.641.001.443.443 0 0 1 0-.634l.722-.719.639.636-.72.716zm2.611-2.602-.002.001-1.324 1.32-.639-.636 1.323-1.317.001-.001c.03-.03.049-.066.068-.101.005-.01.015-.019.019-.03.012-.031.014-.064.019-.097.003-.018.01-.036.01-.054 0-.027-.009-.052-.015-.079-.005-.024-.005-.049-.014-.072a.365.365 0 0 0-.069-.103c-.008-.009-.01-.02-.019-.029l-.001-.002-1.205-1.2c-.013-.013-.029-.018-.043-.029a.346.346 0 0 0-.063-.042l-.002-.001a.32.32 0 0 0-.068-.024l-.003-.001a.41.41 0 0 0-.076-.015h-.016a.369.369 0 0 0-.058.004h.002a.4.4 0 0 0-.081.016l.003-.001a.37.37 0 0 0-.072.035l.002-.001c-.015.008-.032.011-.046.021l-1.33.993-.675-.673 1.799-1.79 3.27 3.217-.695.689zm5.114-5.263c-.011-.001-.022.003-.034.002h-.019a.385.385 0 0 0-.069.006h.002a.363.363 0 0 0-.14.052l.002-.001a.398.398 0 0 0-.062.046c-.01.008-.021.012-.03.022l-3.524 3.86-3.246-3.193 2.125-2.114a.401.401 0 0 0-.284-.684h-.001l-1.664.01.021-1.206 2.328.02a5.195 5.195 0 0 0 3.734 1.576h.003c.328 0 .648-.034.96-.092.03.024.06.048.098.064l1.807.72.114.568.134.664-2.252-.32zm3.031.134-.235-1.168 1.085-.81.71.942-1.56 1.036zm2.816-2.123-.629.589-.698-.927.624-.478a.546.546 0 0 1 .767.106.536.536 0 0 1-.064.711z" style="fill:var(--color1, #2e2f42)"/>
      <path fill="#2e2f42" d="m10.201 13.908-1.607-1.6a.398.398 0 0 0-.564 0l-1.607 1.6a.403.403 0 0 0 0 .568l1.607 1.6a.398.398 0 0 0 .564 0l1.607-1.6a.398.398 0 0 0 0-.568zm-1.889 1.319-1.04-1.036 1.04-1.035 1.041 1.035-1.041 1.036zm4.561-11.424-.193.777c.053.013 1.303.339 1.303 1.612h.8c0-1.513-1.249-2.224-1.91-2.389zm1.91 3.188h-.8v.8h.8v-.8z" style="fill:var(--color1, #2e2f42)"/>
    </symbol>
    <symbol id="icon-clock" viewBox="0 0 24 24">
      <path fill="#2e2f42" d="M23.472 11.476C23.471 5.137 18.331-.001 11.991 0S.514 5.141.515 11.481c.001 5.091 3.317 9.407 7.906 10.909l.081.023a.504.504 0 0 0 .397-.049.483.483 0 0 0 .213-.267l2.899-9.188a1.435 1.435 0 1 0-.638-2.723l.008-.004-3.829-3.83a.48.48 0 0 0-.816.338c0 .132.054.252.14.338l3.828 3.832a1.404 1.404 0 0 0 .398 1.729l.003.002-2.762 8.755C2.885 19.335.09 13.28 2.1 7.822s8.066-8.253 13.524-6.243c5.458 2.011 8.253 8.066 6.243 13.524-1.009 2.686-3.003 4.804-5.531 5.953l-.066.027-.299-1.406a.479.479 0 0 0-.787-.257l-2.878 2.569a.478.478 0 0 0 .17.813l.003.001 3.674 1.173a.478.478 0 0 0 .614-.558l.001.003-.293-1.379c4.146-1.781 6.996-5.829 6.996-10.543v-.026.001zm-11.478-.478a.479.479 0 1 1 0 .957.478.478 0 0 1 0-.957zm1.575 11.148 1.638-1.461.452 2.13-2.09-.669z" style="fill:var(--color1, #2e2f42)"/>
      <path fill="#4d5ae5" d="M11.516 2.389v.956a.478.478 0 1 0 .956 0v-.956a.48.48 0 0 0-.956-.001v.001zm-8.609 8.609a.478.478 0 1 0 0 .956h.956a.478.478 0 1 0 0-.956h-.956zm18.174.956a.478.478 0 1 0 0-.956h-.956a.48.48 0 0 0-.001.956h.957z" style="fill:var(--color2, #4d5ae5)"/>
    </symbol>
    <symbol id="icon-diagram" viewBox="0 0 24 24">
      <path fill="#4d5ae5" d="M11.194 11.224h.8v3.598h-.8v-3.598zm3.199 1.599h.799v1.999h-.799v-1.999zm-6.397 1.199h.8v.799h-.8v-.799zm-2.399-.4h.8v1.199h-.8v-1.199z" style="fill:var(--color2, #4d5ae5)"/>
      <path fill="#2e2f42" d="M1.199 21.218h19.19a1.2 1.2 0 0 0 1.199-1.199V18.42a1.2 1.2 0 0 0-1.199-1.199h-.4v-9.97L22.26 5.1a1.206 1.206 0 1 0-.557-.565l-.003-.007-1.711 1.622v-.923a1.2 1.2 0 0 0-1.199-1.199H2.799A1.2 1.2 0 0 0 1.6 5.227V17.22h-.4a1.2 1.2 0 0 0-1.199 1.199v1.599A1.2 1.2 0 0 0 1.2 21.217zM22.788 3.627a.4.4 0 1 1 0 .8.4.4 0 1 1 0-.8zm-20.389 1.6a.4.4 0 0 1 .4-.4h15.992a.4.4 0 0 1 .4.4v1.679l-.799.76V6.027a.4.4 0 0 0-.4-.4H3.599a.4.4 0 0 0-.4.4v9.994a.4.4 0 0 0 .4.4h14.393a.4.4 0 0 0 .4-.4V8.766l.799-.758v9.212H2.4V5.227zm3.598 5.197h-.003a1.2 1.2 0 1 0 .834 2.061l1.39.697a.399.399 0 0 0 .477-.092l2.954-3.324 2.904 2.176a.399.399 0 0 0 .514-.03l2.524-2.391v6.098H3.999V6.424h13.593v1.995l-2.829 2.679-2.929-2.196a.395.395 0 0 0-.537.054l-2.995 3.369-1.12-.56c.008-.048.014-.096.015-.145a1.2 1.2 0 0 0-1.199-1.199zm.4 1.199a.4.4 0 1 1-.8 0 .4.4 0 1 1 .8 0zm2.398 6.397h3.998v.4a.4.4 0 0 1-.4.4H9.195a.4.4 0 0 1-.4-.4v-.4zm-7.995.4a.4.4 0 0 1 .4-.4h6.796v.4a1.2 1.2 0 0 0 1.199 1.199h3.199a1.2 1.2 0 0 0 1.199-1.199v-.4h6.796a.4.4 0 0 1 .4.4v1.599a.4.4 0 0 1-.4.4H1.2a.4.4 0 0 1-.4-.4V18.42z" style="fill:var(--color1, #2e2f42)"/>
    </symbol>
    <symbol id="icon-facebook" viewBox="0 0 24 24">
      <path fill="#f4f4fd" d="M15.997 3.986h2.19V.17A27.403 27.403 0 0 0 15.093 0h-.103.005c-3.159 0-5.321 1.987-5.321 5.64V9H6.186v4.266h3.486V24h4.273V13.267h3.345l.531-4.268h-3.878v-2.94c.002-1.233.333-2.076 2.052-2.076z" style="fill:var(--color3, #f4f4fd)"/>
    </symbol>
    <symbol id="icon-instagram" viewBox="0 0 24 24">
      <path fill="#f4f4fd" d="M23.976 7.056c-.056-1.275-.262-2.152-.558-2.911a5.892 5.892 0 0 0-1.386-2.129l-.001-.001A5.921 5.921 0 0 0 19.947.647l-.04-.014c-.765-.296-1.635-.503-2.91-.558C15.71.015 15.3 0 12.046 0 8.787 0 8.378.015 7.099.071c-1.275.056-2.151.262-2.91.558A5.892 5.892 0 0 0 2.06 2.015l-.001.001A5.91 5.91 0 0 0 .69 4.1l-.014.04C.38 4.905.175 5.775.118 7.05.058 8.335.043 8.745.043 12.002c0 3.26.015 3.668.071 4.947.055 1.275.263 2.152.558 2.912a5.922 5.922 0 0 0 1.387 2.128 5.921 5.921 0 0 0 2.124 1.383c.765.295 1.635.503 2.911.558 1.279.057 1.688.071 4.947.071 3.258 0 3.666-.015 4.946-.071 1.275-.056 2.152-.263 2.912-.558a6.173 6.173 0 0 0 3.497-3.47l.014-.042c.295-.765.503-1.635.558-2.912.057-1.279.07-1.687.07-4.947 0-3.258-.005-3.666-.06-4.946zm-2.16 9.798c-.053 1.173-.249 1.806-.414 2.227a4.006 4.006 0 0 1-2.252 2.271l-.027.009c-.422.163-1.059.36-2.226.411-1.266.057-1.645.071-4.848.071s-3.587-.015-4.848-.071c-1.173-.051-1.806-.247-2.228-.413a3.714 3.714 0 0 1-1.378-.895l-.001-.001a3.746 3.746 0 0 1-.887-1.353l-.009-.026c-.165-.421-.36-1.059-.412-2.226-.056-1.266-.071-1.647-.071-4.848 0-3.202.015-3.586.071-4.848.052-1.173.249-1.806.412-2.228.192-.521.498-.993.9-1.378.39-.399.858-.704 1.38-.896.42-.165 1.059-.36 2.226-.412 1.266-.056 1.645-.071 4.848-.071 3.207 0 3.585.015 4.848.071 1.172.052 1.804.249 2.226.412.52.192.995.497 1.38.896.398.39.702.858.894 1.38.165.42.361 1.058.413 2.226.057 1.266.07 1.645.07 4.848s-.014 3.577-.069 4.842z" style="fill:var(--color3, #f4f4fd)"/>
      <path fill="#f4f4fd" d="M12.045 5.837a6.167 6.167 0 0 0-.007 12.33h.007a6.167 6.167 0 0 0 .007-12.33h-.007zm0 10.165a4 4 0 0 1 0-8.001 4 4 0 0 1 0 8.001zm7.848-10.408a1.44 1.44 0 0 1-2.88 0 1.44 1.44 0 0 1 2.88 0z" style="fill:var(--color3, #f4f4fd)"/>
    </symbol>
    <symbol id="icon-linkedin" viewBox="0 0 24 24">
      <path fill="#f4f4fd" d="M23.994 24H24v-8.805c0-4.305-.927-7.623-5.961-7.623-2.42 0-4.044 1.329-4.707 2.588h-.071V7.976H8.49V24h4.971v-7.935c0-2.088.396-4.107 2.982-4.107 2.55 0 2.588 2.384 2.588 4.242V24h4.965zM.396 7.977h4.976V24H.396V7.977zM2.881 0C1.291 0 .001 1.29.001 2.88s1.29 2.91 2.88 2.91c1.592 0 2.883-1.32 2.883-2.91S4.469 0 2.879 0z" style="fill:var(--color3, #f4f4fd)"/>
    </symbol>
    <symbol id="icon-Logo1" viewBox="0 0 45 24">
      <path  d="m16.286 3 3.003 2.861-5.575-.003v13.881h14.571v-5.307l3 2.858V2.999h-15zm11.868 11.097-8.516-8.113h8.516v8.113zm-2.644 3.612h-9.49V8.373h.671v8.704h8.819v.633zm-7.597 4.603-.354-.728h-.292l.513.963v.561h.264v-.561l.513-.963h-.291l-.354.727zm1.303-.727h.063l.576 1.524h-.276l-.123-.357h-.59l-.123.357h-.275l.573-1.524h.176zm-.279.958h.446l-.223-.646-.223.646zm1.841-.253a7.898 7.898 0 0 1-.026-.033l-.007-.009a.782.782 0 0 1-.089-.145l-.002-.005a.407.407 0 0 1 .017-.356.326.326 0 0 1 .137-.131l.002-.001a.452.452 0 0 1 .21-.047c.078 0 .144.016.2.047a.328.328 0 0 1 .149.423l.001-.002a.379.379 0 0 1-.073.109.753.753 0 0 1-.104.092l-.002.001-.106.077.302.356a.602.602 0 0 0 .066-.274v-.011.001h.218a.946.946 0 0 1-.022.21.64.64 0 0 1-.113.253l.001-.002.223.264h-.291l-.089-.104a.548.548 0 0 1-.152.084l-.004.001a.682.682 0 0 1-.231.039h-.006a.57.57 0 0 1-.263-.056.422.422 0 0 1-.17-.151l-.001-.002a.412.412 0 0 1-.06-.216v-.007c0-.062.013-.117.039-.163a.485.485 0 0 1 .106-.132c.041-.037.088-.075.141-.112zm.125.154-.032.023a.393.393 0 0 0-.082.086l-.001.001a.25.25 0 0 0-.014.259l-.001-.001c.02.037.049.066.084.086l.001.001c.038.02.082.032.129.032h.008a.383.383 0 0 0 .246-.088l-.001.001-.339-.399zm.06-.279.093-.063a.347.347 0 0 0 .094-.085l.001-.001a.185.185 0 0 0 .028-.1v-.007a.152.152 0 0 0-.152-.147h-.013a.153.153 0 0 0-.14.089v.001a.218.218 0 0 0 .007.188l-.001-.001a.632.632 0 0 0 .066.104l.017.022zm2.666.447h-.262a.484.484 0 0 1-.049.171l.001-.003a.24.24 0 0 1-.104.103l-.001.001a.384.384 0 0 1-.165.036h-.017.001-.009a.319.319 0 0 1-.151-.038l.002.001a.294.294 0 0 1-.108-.102l-.001-.001a.496.496 0 0 1-.062-.157l-.001-.003a.971.971 0 0 1-.02-.201v-.137c0-.081.007-.153.022-.216s.039-.117.069-.16a.296.296 0 0 1 .11-.098l.002-.001a.347.347 0 0 1 .149-.034h.009c.073 0 .132.013.178.038s.079.06.102.107a.475.475 0 0 1 .046.168h.261a.66.66 0 0 0-.087-.274l.002.003a.492.492 0 0 0-.192-.184l-.003-.001a.634.634 0 0 0-.288-.068h-.02.001c-.096 0-.182.017-.258.051s-.141.081-.196.146a.662.662 0 0 0-.124.222l-.001.005a.951.951 0 0 0-.043.297v.127c0 .109.014.208.042.297s.07.164.123.227a.559.559 0 0 0 .448.194c.123 0 .227-.022.313-.067s.152-.106.2-.183a.617.617 0 0 0 .084-.267zm1.453-.224v-.084a.956.956 0 0 0-.046-.309.682.682 0 0 0-.129-.234l.001.001a.546.546 0 0 0-.197-.146l-.004-.001c-.077-.034-.163-.051-.257-.051s-.179.017-.256.051c-.077.033-.144.083-.2.147s-.099.142-.129.234a.95.95 0 0 0-.046.295v.014-.001.084c0 .115.015.219.046.31.03.09.075.168.132.234l-.001-.001a.58.58 0 0 0 .457.198c.094 0 .18-.017.257-.05.077-.034.144-.084.199-.148s.099-.141.129-.233a.991.991 0 0 0 .045-.31zm-.263-.086v.086a.952.952 0 0 1-.025.226.489.489 0 0 1-.072.168l.001-.002a.313.313 0 0 1-.113.101l-.002.001a.347.347 0 0 1-.149.033h-.014a.348.348 0 0 1-.151-.034l.002.001a.333.333 0 0 1-.116-.101l-.001-.001a.502.502 0 0 1-.073-.163l-.001-.003a.897.897 0 0 1-.025-.214v-.013.001-.086c0-.085.009-.16.025-.225s.041-.12.072-.164a.319.319 0 0 1 .114-.099l.002-.001a.33.33 0 0 1 .149-.035h.006c.058 0 .11.012.156.034s.084.056.116.101a.449.449 0 0 1 .072.164c.017.065.025.14.025.225z" />
    </symbol>
    <symbol id="icon-Logo2" viewBox="0 0 45 24">
      <path  d="M21.477 2.544h-.059c-.09-.006-.18-.008-.27-.01h-.195c-.17 0-.344.004-.516.013l-.02-.001-.02.001h.001c-1.655.096-3.191.51-4.58 1.181l.072-.032-.185.089v9.489l.434-.147a15.92 15.92 0 0 1 1.206-.357 14.376 14.376 0 0 1 3.459-.461h.01v1.247a9.717 9.717 0 0 0-.456.013h-.036a13.96 13.96 0 0 0-2.766.431l.097-.021a13.522 13.522 0 0 0-3.25 1.275l.07-.035V3.049a12.484 12.484 0 0 1 3.248-1.338l.088-.019a12.456 12.456 0 0 1 3.141-.405h.186c.219.006.433.015.633.03a9.01 9.01 0 0 1 1.566.25v1.227a9.269 9.269 0 0 0-1.486-.227l-.032-.002-.031-.003a3.772 3.772 0 0 0-.31-.018zm2.16 1.254c.272.021.554.031.839.031a13.547 13.547 0 0 0 3.4-.445l-.094.021A13.59 13.59 0 0 0 31.03 2.13l-.07.036v11.953a12.533 12.533 0 0 1-3.248 1.338l-.089.019c-.942.253-2.025.4-3.142.405h-.08a9.626 9.626 0 0 1-2.374-.296l.066.014V3.568c.184.043.374.082.567.114.317.054.651.093.976.117zm6.083.093-.434.146c-.399.134-.801.254-1.206.361-1.08.289-2.321.457-3.6.462h-.003c-.283 0-.543-.008-.795-.024l-.346-.023v9.762l.297.026c.275.024.559.036.846.036a11.539 11.539 0 0 0 2.918-.385l-.08.018a11.81 11.81 0 0 0 2.288-.828l-.071.031.185-.089V3.892zM15.316 19.377a.634.634 0 0 0-.46-.195h-.024.001-.01a.716.716 0 0 0-.274.054l.005-.002a.63.63 0 0 0-.355.357l-.001.004a.71.71 0 0 0-.05.269v1.626a.764.764 0 0 0 .064.333.588.588 0 0 0 .386.334.907.907 0 0 0 .243.033.686.686 0 0 0 .673-.685v-.182h-.426v.155a.372.372 0 0 1-.026.138l.001-.003a.267.267 0 0 1-.062.092.295.295 0 0 1-.178.062l-.025.001a.217.217 0 0 1-.174-.088v-.001a.378.378 0 0 1-.057-.201v-.017.001-1.516a.512.512 0 0 1 .052-.243.218.218 0 0 1 .209-.098h-.001.008c.074 0 .14.036.181.091v.001c.044.057.07.13.07.209v.151h.421V19.884c0-.1-.019-.195-.054-.283l.002.005a.664.664 0 0 0-.143-.229zm2.525-.018a.732.732 0 0 0-.737-.133.674.674 0 0 0-.388.356l-.002.004a.757.757 0 0 0-.062.315v1.559a.742.742 0 0 0 .062.319.621.621 0 0 0 .165.218c.065.06.141.107.225.137a.728.728 0 0 0 .738-.138l-.001.001a.662.662 0 0 0 .16-.218c.044-.1.065-.21.062-.319v-1.574a.762.762 0 0 0-.064-.306l.002.005a.72.72 0 0 0-.16-.228zm-.198 2.101.001.024a.283.283 0 0 1-.085.202.313.313 0 0 1-.401 0 .278.278 0 0 1-.086-.201l.001-.026v.001-1.56l-.001-.024a.28.28 0 0 1 .085-.201.313.313 0 0 1 .401 0 .277.277 0 0 1 .085.201l-.001.025V19.9v1.56zm3.514.697v-2.953h-.408l-.537 1.563h-.007l-.541-1.563h-.404v2.952h.422V20.36h.008l.413 1.269h.21l.416-1.269h.008v1.796h.422zm2.396-2.745a.588.588 0 0 0-.238-.162.923.923 0 0 0-.29-.046h-.017.001-.627v2.953h.421v-1.153h.216a.77.77 0 0 0 .38-.081.613.613 0 0 0 .229-.223l.002-.003a.714.714 0 0 0 .096-.257c.015-.093.023-.2.023-.309v-.028.001a1.712 1.712 0 0 0-.041-.422.635.635 0 0 0-.155-.271zm-.216.9a.372.372 0 0 1-.04.156l.001-.002a.242.242 0 0 1-.107.103l-.001.001a.425.425 0 0 1-.177.038l-.023-.001h.001-.192v-1.004h.217l.02-.001c.062 0 .12.014.172.038l-.002-.001a.247.247 0 0 1 .098.107l.001.001a.427.427 0 0 1 .037.165v.196c0 .069.004.14 0 .203h-.004zm2.209-1.108h-.345l-.651 2.953h.421l.123-.634h.574l.123.634h.42l-.666-2.953zm-.388 1.916.207-1.07h.008l.206 1.07h-.42zm3.106-.137h-.008l-.635-1.779h-.405v2.953h.42v-1.776h.009l.643 1.775h.396v-2.952h-.42v1.779zm2.571-1.779-.339 1.174h-.009l-.339-1.174h-.445l.578 1.705v1.248h.421v-1.248l.578-1.704h-.446zm-16.692 3.787h.203v.569h.138v-.569h.201v-.117h-.542v.117zm1.704-.117-.266.686h.146l.057-.156h.273l.058.156h.15l-.273-.686h-.146zm-.021.414.093-.254.093.254h-.186zm1.706.019h.159v.088a.263.263 0 0 1-.163.058h-.01a.176.176 0 0 1-.136-.065.284.284 0 0 1-.051-.163v-.016.001c0-.153.066-.229.197-.229l.015-.001c.068 0 .124.046.14.109v.001l.135-.027c-.029-.134-.126-.201-.291-.201h-.009a.344.344 0 0 0-.231.089.336.336 0 0 0-.099.265v-.001.016a.37.37 0 0 0 .089.242v-.001a.33.33 0 0 0 .239.101l.022-.001h-.001.011a.412.412 0 0 0 .28-.11v-.27h-.297v.116zm1.721-.433h-.139v.686h.48v-.117h-.341v-.569zm1.455 0h-.139v.686h.139v-.686zm1.422.457-.281-.458h-.134v.686h.129v-.448l.276.448h.138v-.686h-.127v.458zm1.286-.074h.342v-.117h-.342v-.15h.367v-.117h-.506v.686h.52v-.117h-.381v-.186zm3.118-.113h-.27v-.27h-.137v.685h.137v-.3h.27v.3h.138v-.686h-.138v.27zm1.293.113h.343v-.117h-.343v-.15h.369v-.117h-.506v.686h.519v-.117h-.381v-.186zm1.754.001c.12-.019.18-.082.18-.191l.001-.019a.164.164 0 0 0-.068-.133.382.382 0 0 0-.174-.041l-.028.001h.001-.291v.685h.138v-.287h.038c.027 0 .053.006.076.016h-.001c.02.012.037.03.049.05l.15.218h.165l-.084-.134a.48.48 0 0 0-.15-.163l-.002-.001zm-.139-.095h-.102v-.172h.108l.029-.001c.04 0 .078.006.113.018l-.003-.001c.018.017.03.04.03.067 0 .03-.014.056-.036.072a.378.378 0 0 1-.114.017l-.027-.001h.001zm1.462.094h.341v-.117h-.341v-.15h.369v-.117h-.507v.686h.52v-.117h-.381v-.186z" />
    </symbol>
    <symbol id="icon-Logo3" viewBox="0 0 45 24">
      <path  d="M15.776 21.096a.059.059 0 0 1 .037.014l.094.089a.773.773 0 0 1-.26.167l-.005.002c-.12.043-.249.063-.378.06h-.02c-.12 0-.236-.021-.343-.059l.007.002a.794.794 0 0 1-.268-.16l.001.001a.725.725 0 0 1-.171-.242l-.002-.005a.8.8 0 0 1-.06-.307V20.637c0-.111.024-.217.067-.312l-.002.005a.726.726 0 0 1 .183-.246.833.833 0 0 1 .278-.159l.006-.002c.106-.036.227-.057.353-.057h.013-.001c.116-.002.231.015.339.051.094.035.18.083.255.143l-.079.095a.082.082 0 0 1-.02.017.05.05 0 0 1-.028.007h-.005a.101.101 0 0 1-.035-.01l-.043-.025-.059-.032a.652.652 0 0 0-.183-.056l-.004-.001a.866.866 0 0 0-.129-.01h-.012.001-.009a.791.791 0 0 0-.259.044l.005-.002a.595.595 0 0 0-.206.12l.001-.001a.55.55 0 0 0-.134.19.615.615 0 0 0-.048.242v.019c0 .088.018.173.05.249l-.002-.004a.542.542 0 0 0 .324.305l.004.001c.077.027.16.041.243.04a.986.986 0 0 0 .144-.008.573.573 0 0 0 .313-.131l-.001.001a.07.07 0 0 1 .045-.016zm2.732-.447a.753.753 0 0 1-.064.315.695.695 0 0 1-.177.244l-.001.001a.837.837 0 0 1-.279.16 1.177 1.177 0 0 1-.728-.002l.008.002a.827.827 0 0 1-.28-.162l.001.001a.724.724 0 0 1-.178-.242l-.002-.005a.801.801 0 0 1 .002-.635l-.002.005a.744.744 0 0 1 .18-.248.829.829 0 0 1 .278-.154c.231-.077.488-.077.719 0 .105.036.2.091.279.161a.723.723 0 0 1 .243.541v.02-.001zm-.248 0a.65.65 0 0 0-.045-.253.522.522 0 0 0-.323-.307l-.004-.001a.835.835 0 0 0-.528.002l.006-.002a.573.573 0 0 0-.201.12.506.506 0 0 0-.127.185l-.001.003a.734.734 0 0 0 0 .506.516.516 0 0 0 .328.307.864.864 0 0 0 .523 0 .573.573 0 0 0 .2-.118c.057-.055.1-.12.127-.189a.647.647 0 0 0 .045-.253zm2.113.265.025.057.027-.057a.44.44 0 0 1 .031-.056l.604-.939c.012-.017.023-.027.034-.03s.026-.005.04-.005h.189v1.527h-.212v-1.17l-.001-.026.001-.028v.001l-.608.952a.077.077 0 0 1-.035.034.107.107 0 0 1-.051.013H20.381a.107.107 0 0 1-.051-.013h.001a.088.088 0 0 1-.035-.034l-.626-.958v1.226h-.205v-1.524h.187c.015 0 .029.002.043.006h-.001a.067.067 0 0 1 .033.029l.617.94a.298.298 0 0 1 .031.055zm2.275-.076v.572h-.237v-1.525h.527c.1-.002.199.009.295.033a.58.58 0 0 1 .208.095c.051.039.091.09.117.148l.001.002a.44.44 0 0 1 .04.195v.007a.424.424 0 0 1-.17.34l-.001.001a.598.598 0 0 1-.206.1l-.004.001a1.008 1.008 0 0 1-.285.035l-.286-.004zm0-.164h.286a.662.662 0 0 0 .183-.024.404.404 0 0 0 .133-.066l-.001.001a.287.287 0 0 0 .109-.226v-.02a.25.25 0 0 0-.025-.11l.001.002a.301.301 0 0 0-.082-.104h-.001a.51.51 0 0 0-.281-.083l-.039.001h.002-.286v.629zm3.179.738h-.19a.09.09 0 0 1-.049-.014.105.105 0 0 1-.031-.035v-.001l-.161-.369h-.808l-.167.369a.087.087 0 0 1-.079.049h-.19l.71-1.527h.246l.719 1.527zm-1.17-.567h.667l-.282-.621a1.017 1.017 0 0 1-.052-.136l-.002-.007-.027.08a1.19 1.19 0 0 1-.026.064l-.279.621zm2.193-.953a.106.106 0 0 1 .035.027l1.035 1.151v-1.185h.212v1.527h-.123a.113.113 0 0 1-.045-.009h.001a.12.12 0 0 1-.038-.029l-1.034-1.15.001.026-.001.028v-.001 1.135h-.212v-1.527h.125c.015 0 .029.002.043.007zm3.026.913v.606h-.237v-.606l-.654-.92h.217c.017 0 .033.005.046.013.013.01.024.021.032.034l.409.594a.633.633 0 0 1 .071.131l.001.004.031-.066a.7.7 0 0 1 .04-.07l.403-.597a.157.157 0 0 1 .031-.032.082.082 0 0 1 .047-.015h.218l-.656.924zm-9.62-3.483c.103.011.207.02.312.028 1.596-.61 2.946-1.608 3.882-2.871s1.415-2.732 1.378-4.226L24.069 8.75c.357 1.59.19 3.234-.483 4.749s-1.827 2.837-3.331 3.823z" />
      <path  d="m19.627 17.252.047.008c1.607-.982 2.833-2.354 3.518-3.937s.798-3.306.325-4.945l-2.505-2.141c1.014 1.76 1.422 3.729 1.176 5.679s-1.133 3.801-2.56 5.337zm8.498-5.234c-.426 1.641-1.46 3.122-2.948 4.221a9.24 9.24 0 0 1-1.347.834l-.054.025c1.212-.304 2.326-.843 3.256-1.573s1.652-1.634 2.109-2.64l-1.016-.867z" />
      <path  d="m27.726 11.776-1.447-1.236c-.028 1.409-.497 2.787-1.358 3.989s-2.084 2.185-3.541 2.847h.007c.324 0 .649-.017.971-.049 1.361-.475 2.564-1.23 3.501-2.199s1.578-2.12 1.867-3.351zm-7.889-6.442-1.725-1.477c-1.543.51-2.87 1.405-3.807 2.569s-1.442 2.544-1.446 3.957c.006 1.561.621 3.077 1.749 4.306s2.702 2.102 4.475 2.481c1.583-1.648 2.51-3.684 2.646-5.813s-.526-4.239-1.89-6.024zm11.877 6.215c-.006-1.853-.87-3.628-2.404-4.938s-3.611-2.049-5.78-2.054h-.019c-1.041 0-2.042.17-2.977.485l.066-.019 10.568 9.029a5.945 5.945 0 0 0 .546-2.502z" />
    </symbol>
    <symbol id="icon-Logo4" viewBox="0 0 45 24">
      <path  d="M10.319 9.222h-.001c-1.022 0-1.851.747-1.851 1.669v.001c0 .921.829 1.669 1.851 1.669h.001c1.023 0 1.851-.747 1.851-1.669v-.001c0-.921-.829-1.669-1.851-1.669zm13.664-.534c-.003-1.281-.568-2.507-1.572-3.413s-2.365-1.415-3.786-1.418c-1.42.002-2.782.512-3.786 1.418s-1.57 2.133-1.573 3.414v7.06s10.716-1.076 10.716-7.059v-.001zM4.714 18.066c.003.891.396 1.745 1.095 2.375s1.646.985 2.634.988c.988-.003 1.935-.357 2.633-.987s1.092-1.483 1.095-2.374v-4.912s-7.456.749-7.456 4.911zm3.728.88c-.193 0-.382-.051-.543-.148a.908.908 0 0 1-.357-.39l-.002-.005a.79.79 0 0 1-.054-.514l-.001.005a.855.855 0 0 1 .267-.45l.001-.001c.136-.121.306-.206.494-.24l.006-.001c.189-.034.386-.017.564.05s.331.18.438.324a.81.81 0 0 1 .092.827.904.904 0 0 1-.211.287.982.982 0 0 1-.31.189l-.007.002a1.04 1.04 0 0 1-.373.067h-.001v-.003zm6.819-1.582v1.828h-.377v-1.828h.377zm.729.78v.294h-.831v-.294h.831zm.087-.78v.295h-.918v-.295h.919zm1.72.871v.087c0 .139-.019.264-.057.374a.841.841 0 0 1-.16.284l.001-.001a.698.698 0 0 1-.246.177.767.767 0 0 1-.304.061h-.012.001a.811.811 0 0 1-.315-.061.696.696 0 0 1-.245-.176l-.001-.001a.814.814 0 0 1-.16-.277l-.002-.006a1.132 1.132 0 0 1-.057-.357v-.018.001-.087c0-.14.019-.264.057-.374a.827.827 0 0 1 .16-.283l-.001.001c.069-.078.151-.137.246-.178s.201-.062.315-.062c.116 0 .22.021.315.062s.177.1.246.178a.824.824 0 0 1 .161.283c.039.109.058.234.058.374zm-.38.086v-.089c0-.097-.009-.182-.026-.256a.576.576 0 0 0-.079-.188l.001.002a.333.333 0 0 0-.124-.112l-.002-.001a.359.359 0 0 0-.162-.039h-.008a.343.343 0 0 0-.294.151l-.001.001a.557.557 0 0 0-.076.182l-.001.004a1.064 1.064 0 0 0-.026.24v.017-.001.089c0 .096.009.182.026.256s.044.136.078.187a.343.343 0 0 0 .295.153.335.335 0 0 0 .293-.152l.001-.001a.615.615 0 0 0 .077-.187c.017-.072.026-.156.026-.241v-.016.001zm1.603.392v-.004a.238.238 0 0 0-.016-.085l.001.002a.175.175 0 0 0-.052-.073.479.479 0 0 0-.106-.065l-.003-.001a1.334 1.334 0 0 0-.171-.065l-.011-.003a2.394 2.394 0 0 1-.25-.096l.014.006a1.007 1.007 0 0 1-.198-.118l.002.002a.513.513 0 0 1-.131-.155l-.001-.003a.432.432 0 0 1-.048-.198v-.015c0-.074.019-.143.051-.204l-.001.002a.471.471 0 0 1 .141-.161.695.695 0 0 1 .213-.105.98.98 0 0 1 .273-.036c.135 0 .252.024.353.073s.178.115.234.2a.511.511 0 0 1 .084.29h-.374v-.006a.286.286 0 0 0-.035-.136l.001.001a.23.23 0 0 0-.099-.096l-.001-.001a.357.357 0 0 0-.155-.035h-.014.001-.013a.39.39 0 0 0-.153.031l.003-.001a.219.219 0 0 0-.098.079v.001a.193.193 0 0 0-.032.107v.004a.16.16 0 0 0 .022.084.274.274 0 0 0 .07.07l.001.001c.031.022.069.042.114.062s.098.038.157.057c.1.03.187.064.263.102s.14.08.191.127c.051.047.09.1.116.159s.039.127.039.202v.018a.436.436 0 0 1-.18.354l-.001.001c-.058.043-.129.076-.21.099s-.172.034-.273.034c-.09 0-.18-.012-.267-.036a.83.83 0 0 1-.243-.111l.003.002a.548.548 0 0 1-.169-.183l-.001-.003a.53.53 0 0 1-.064-.267h.378a.36.36 0 0 0 .026.144c.017.038.042.07.074.095h.001a.32.32 0 0 0 .114.052h.002a.622.622 0 0 0 .148.016h.014c.053 0 .103-.01.149-.029l-.003.001a.2.2 0 0 0 .126-.185v-.003zm1.45-1.349v1.828h-.375v-1.828h.375zm.563 0v.295h-1.491v-.295h1.491zm1.441 1.534v.294h-.973v-.294h.973zm-.85-1.534v1.828h-.377v-1.828h.377zm.723.744v.286h-.846v-.286h.846zm.126-.744v.295h-.972v-.295h.972zm.221 0h.681c.14 0 .26.021.36.063.102.042.179.104.234.186s.081.183.081.303c0 .098-.016.182-.05.252s-.08.128-.138.174l-.001.001a.702.702 0 0 1-.204.109l-.005.002-.119.063h-.593l-.003-.294h.453a.346.346 0 0 0 .154-.036l-.002.001a.235.235 0 0 0 .098-.097l.001-.001a.3.3 0 0 0 .034-.139v-.015a.32.32 0 0 0-.034-.145l.001.002a.219.219 0 0 0-.098-.097l-.001-.001a.356.356 0 0 0-.155-.034h-.013.001-.305v1.533h-.376v-1.828zm1.022 1.828-.417-.815.398-.003.422.8v.017h-.403zm1.978-.652h-.466v-.294H25.709a.385.385 0 0 0 .163-.036l-.002.001a.228.228 0 0 0 .098-.099l.001-.001a.36.36 0 0 0-.001-.298l.001.002a.263.263 0 0 0-.098-.113l-.001-.001a.323.323 0 0 0-.162-.043h-.014.001-.336v1.533h-.376v-1.828h.711c.144 0 .266.026.369.078.103.051.181.122.236.212s.081.194.081.31c0 .118-.027.22-.081.306s-.133.153-.236.2a.88.88 0 0 1-.369.07zm2.172.358v.294h-.973v-.294h.973zm-.85-1.534v1.828h-.377v-1.828h.377zm.723.744v.286h-.846v-.286h.846zm.125-.744v.295h-.972v-.295h.972zm1.064 0v1.828h-.375v-1.828h.375zm.562 0v.295h-1.491v-.295h1.491zm1.442 1.534v.294h-.973v-.294h.973zm-.85-1.534v1.828h-.377v-1.828h.377zm.723.744v.286h-.846v-.286h.846zm.125-.744v.295h-.972v-.295h.972zm.222 0h.681c.14 0 .26.021.361.063s.179.104.234.186a.54.54 0 0 1 .081.303c0 .098-.017.182-.05.252s-.08.128-.138.174l-.001.001a.707.707 0 0 1-.205.109l-.005.002-.119.063h-.593l-.003-.294h.453a.346.346 0 0 0 .154-.036l-.002.001a.235.235 0 0 0 .098-.097l.001-.001a.296.296 0 0 0 .034-.14v-.014a.327.327 0 0 0-.034-.146l.001.002a.219.219 0 0 0-.098-.097l-.001-.001a.356.356 0 0 0-.155-.034h-.013.001-.305v1.533h-.377v-1.828zm1.022 1.828-.417-.815.398-.003.422.8v.017h-.403zm1.577-.479v-.003a.249.249 0 0 0-.016-.087l.001.002a.175.175 0 0 0-.052-.073.479.479 0 0 0-.106-.065l-.003-.001a1.334 1.334 0 0 0-.171-.065l-.011-.003a2.416 2.416 0 0 1-.251-.096l.014.006a1.007 1.007 0 0 1-.198-.118l.002.002a.513.513 0 0 1-.131-.155l-.001-.003a.432.432 0 0 1-.048-.198v-.015c0-.074.019-.143.051-.204l-.001.002a.471.471 0 0 1 .141-.161.695.695 0 0 1 .213-.105.98.98 0 0 1 .273-.036c.135 0 .252.024.353.073s.178.115.234.2a.511.511 0 0 1 .084.29h-.374v-.006a.286.286 0 0 0-.035-.136l.001.001a.23.23 0 0 0-.099-.096l-.001-.001a.357.357 0 0 0-.155-.035h-.014.001-.013a.39.39 0 0 0-.153.031l.003-.001a.219.219 0 0 0-.098.079v.001a.197.197 0 0 0-.033.108v.003a.16.16 0 0 0 .022.084.274.274 0 0 0 .07.07l.001.001c.031.022.069.042.114.062s.098.038.157.057c.1.03.187.064.263.102s.14.08.191.127c.051.047.09.1.116.159s.039.127.039.202v.018a.436.436 0 0 1-.18.354l-.001.001c-.058.043-.129.076-.21.099s-.172.034-.272.034c-.09 0-.18-.012-.267-.036a.83.83 0 0 1-.243-.111l.003.002a.55.55 0 0 1-.17-.183l-.001-.003a.53.53 0 0 1-.064-.267h.378a.36.36 0 0 0 .026.144c.017.038.042.07.074.095h.001a.32.32 0 0 0 .114.052h.002a.622.622 0 0 0 .148.016h.014c.053 0 .103-.01.149-.029l-.003.001a.2.2 0 0 0 .126-.185v-.003z" />
    </symbol>
    <symbol id="icon-Logo5" viewBox="0 0 45 24">
      <path  d="M11.482 19.017a.608.608 0 0 1 .159.415c.005.098-.014.196-.057.287s-.107.171-.189.237a1.14 1.14 0 0 1-.717.191h.004-1.254v-2.628h1.228l.072-.002c.226 0 .436.066.613.179l-.005-.003c.079.06.142.135.183.221s.06.178.054.271a.568.568 0 0 1-.143.402.682.682 0 0 1-.369.205l-.004.001a.728.728 0 0 1 .423.225zm-1.47-.397h.525a.537.537 0 0 0 .333-.087.313.313 0 0 0 .089-.115l.001-.002a.284.284 0 0 0 .024-.114l-.001-.028v.001l.001-.022a.295.295 0 0 0-.025-.119l.001.002a.32.32 0 0 0-.087-.117.547.547 0 0 0-.301-.09l-.045.002h.002-.517v.689zm.91 1.008a.332.332 0 0 0 .096-.118l.001-.002a.288.288 0 0 0 .028-.126l-.001-.021v.001l.001-.019a.3.3 0 0 0-.03-.131l.001.002a.342.342 0 0 0-.098-.121l-.001-.001a.584.584 0 0 0-.322-.096l-.037.001h.002-.55v.723h.558a.603.603 0 0 0 .352-.091zm3.07.519-.683-1.027h-.257v1.027h-.587v-2.628h1.112a1.18 1.18 0 0 1 .778.225l-.003-.002c.156.143.249.331.264.53s-.049.397-.182.557a.932.932 0 0 1-.531.267l.727 1.05h-.639zm-.939-1.385h.48c.334 0 .501-.133.501-.398l.001-.021c0-.05-.01-.097-.029-.14l.001.002a.392.392 0 0 0-.095-.136.551.551 0 0 0-.331-.108l-.049.002h.002-.486l.006.8zm4.151.856h-1.171l-.207.529h-.616l1.076-2.598h.666l1.071 2.598h-.616l-.202-.529zm-.157-.398-.428-1.11-.428 1.109h.856zm4.177.927h-.583l-1.308-1.787v1.787h-.582v-2.628h.582l1.308 1.797v-1.797h.583v2.628zm3.329-.629a1.219 1.219 0 0 1-.52.461l-.007.003a1.867 1.867 0 0 1-.82.165h-1.038v-2.628h1.038l.048-.001c.279 0 .544.06.784.167l-.012-.005c.223.102.407.261.528.459a1.402 1.402 0 0 1-.003 1.386l.004-.007zm-.667-.063a.906.906 0 0 0 .258-.627.906.906 0 0 0-.258-.627 1.077 1.077 0 0 0-.663-.226l-.07.002h.003-.405v1.701h.405l.068.002c.251 0 .481-.085.665-.227l-.002.002zM17.569 2.9s7.528 2.559 7.369 6.261v6.263s-7.523-2.56-7.367-6.263L17.568 2.9zm14.076 11.059a11.037 11.037 0 0 1 4.783-1.587v-1.961c-1.978.686-3.656 1.931-4.783 3.547z" />
      <path  d="M30.791 14.549c1.163-2.11 3.181-3.738 5.637-4.549V4.351s-10.722 3.645-10.495 8.918v8.917s.478-.163 1.23-.469c0-.285 0-.573.034-.861.222-2.448 1.515-4.716 3.594-6.306z" />
      <path  d="M29.771 17.862a8.368 8.368 0 0 1 .393-1.885l-.017.059c-1.295 1.373-2.079 3.077-2.242 4.872a7.818 7.818 0 0 0-.028.513 30.5 30.5 0 0 0 2.24-1.063l-.178.085a8.132 8.132 0 0 1-.202-1.822c0-.267.013-.532.037-.793l-.003.033zm.427.032a7.973 7.973 0 0 0 .142 2.39l-.009-.052c2.929-1.578 6.221-4.016 6.094-6.963v-.257c-2.093.211-4.051 1.035-5.574 2.345a7.872 7.872 0 0 0-.651 2.506l-.002.032z" />
    </symbol>
    <symbol id="icon-Logo6" viewBox="0 0 45 24">
      <path  d="M22.941 11.761a1.256 1.256 0 0 1-.26-.857v.004V9.67c0-.379.086-.668.258-.865s.468-.296.887-.295c.394 0 .674.084.839.252.18.214.268.476.248.74v.291h-.705v-.295a1.392 1.392 0 0 0-.021-.288.278.278 0 0 0-.1-.171h-.001a.406.406 0 0 0-.225-.068l-.032.001h.001l-.031-.001a.432.432 0 0 0-.239.072l.002-.001a.33.33 0 0 0-.116.186v.002a1.382 1.382 0 0 0-.028.282v.026-.001 1.502a.753.753 0 0 0 .093.426l-.002-.004c.037.045.084.08.138.102l.002.001a.4.4 0 0 0 .182.024c.09.006.18-.018.249-.068a.307.307 0 0 0 .105-.181v-.002c.016-.099.024-.2.022-.301v-.305h.705v.279l.002.072c0 .268-.093.514-.248.708l.002-.002c-.162.184-.437.276-.843.276s-.712-.098-.886-.302zm2.934.013c-.178-.193-.267-.474-.267-.845V9.627c0-.368.089-.646.267-.835s.476-.283.893-.282c.414 0 .711.094.888.282.178.189.269.467.269.835v1.302c0 .368-.09.65-.271.844s-.476.291-.886.291-.714-.098-.893-.289zm1.222-.312a.716.716 0 0 0 .084-.385V9.483l.001-.042a.705.705 0 0 0-.086-.339l.002.004a.336.336 0 0 0-.141-.103l-.002-.001a.38.38 0 0 0-.188-.022h.002a.393.393 0 0 0-.189.023l.003-.001a.335.335 0 0 0-.144.103v.001a.69.69 0 0 0-.084.378v1.602a.716.716 0 0 0 .084.385.46.46 0 0 0 .33.13.51.51 0 0 0 .184-.035l-.003.001a.444.444 0 0 0 .149-.096v-.008zm1.676-2.914h.759l.571 2.402.583-2.402h.738l.075 3.467h-.546l-.058-2.409-.563 2.409h-.438l-.584-2.418-.054 2.418h-.552l.069-3.467zm3.577 0h1.182c.681 0 1.021.328 1.021.984 0 .629-.359.943-1.076.942h-.402v1.541h-.729l.004-3.468zm1.01 1.482a.57.57 0 0 0 .401-.11.556.556 0 0 0 .105-.393v.003l.001-.04c0-.098-.013-.192-.037-.283l.002.008a.254.254 0 0 0-.054-.095.3.3 0 0 0-.09-.069l-.002-.001a.737.737 0 0 0-.286-.056l-.041.001h.002-.283v1.036h.283zm2.245-1.482h.783l.804 3.467h-.68l-.159-.799h-.699l-.164.8h-.69l.804-3.468zm.67 2.267-.273-1.455-.273 1.455h.546zm1.567-2.267h.511l.977 1.978V8.548h.606v3.467h-.486l-.984-2.064v2.064h-.626l.001-3.467zm3.512 2.146-.813-2.141h.684l.496 1.375.465-1.375h.67l-.803 2.141v1.322h-.7v-1.322zm-17.286 2.838v.181h-.596v1.409h-.249v-1.409h-.599v-.181h1.443zm1.866 1.59h-.198a.091.091 0 0 1-.049-.015.086.086 0 0 1-.032-.036v-.001l-.172-.378h-.826l-.172.378a.1.1 0 0 1-.026.043.092.092 0 0 1-.05.015h-.198l.73-1.59h.254l.738 1.584zm-1.208-.59h.689l-.291-.647a1.06 1.06 0 0 1-.052-.142l-.002-.008-.027.084-.027.067-.289.646zm2.466.434a.792.792 0 0 0 .254-.019.877.877 0 0 0 .111-.031l-.006.002.098-.039v-.357h-.296a.052.052 0 0 1-.018-.003.052.052 0 0 1-.018-.01c-.005-.003-.008-.008-.011-.013a.033.033 0 0 1-.003-.015v-.124h.566v.609a1.09 1.09 0 0 1-.3.128l-.008.002a1.402 1.402 0 0 1-.396.043h-.008c-.129 0-.252-.022-.367-.062l.008.002a.899.899 0 0 1-.293-.167l.001.001a.78.78 0 0 1-.187-.247l-.002-.005a.788.788 0 0 1-.067-.319v-.011.001-.01a.82.82 0 0 1 .068-.328l-.002.005c.042-.094.106-.18.189-.252s.183-.128.291-.165a1.376 1.376 0 0 1 .594-.045.905.905 0 0 1 .447.186l-.07.099a.061.061 0 0 1-.024.021.09.09 0 0 1-.033.009.091.091 0 0 1-.046-.013.73.73 0 0 1-.075-.04l.004.002a.579.579 0 0 0-.094-.041l-.005-.001a.818.818 0 0 0-.128-.034l-.006-.001a1.06 1.06 0 0 0-.175-.014h-.01.001-.009a.86.86 0 0 0-.279.046l.006-.002a.64.64 0 0 0-.215.126h.001a.546.546 0 0 0-.136.197.73.73 0 0 0 .002.535l-.002-.005a.567.567 0 0 0 .146.2.65.65 0 0 0 .213.126.826.826 0 0 0 .289.031zm2.325-.026h.797v.181h-1.041v-1.59h.249l-.006 1.409zm1.626.182h-.249v-1.59h.249v1.59zm.928-1.583a.11.11 0 0 1 .038.029l1.066 1.199-.001-.028.001-.03v.001-1.185h.217v1.597h-.134a.107.107 0 0 1-.047-.01h.001a.145.145 0 0 1-.039-.03l-1.065-1.198v1.237h-.209v-1.59h.13c.014 0 .028.003.041.007zm3.159-.007v.175h-.885v.525h.716v.169h-.716v.543h.884v.175h-1.141v-1.586h1.141zM9.084 3.711l11.079 2.715v9.512L9.084 13.225V3.711zM8.373 2.9v10.786l12.499 3.063V5.964L8.373 2.899z" />
      <path  d="M15.072 21.757 2.571 18.691V7.906l12.501 3.064v10.787z" />
      <path  d="m8.58 3.589 10.935 2.68-4.65 4.014L3.928 7.601 8.58 3.589zM8.373 2.9 2.571 7.906l12.501 3.065 5.8-5.006L8.373 2.9zm7.403 18.25 5.097-4.399-5.097-1.25v5.649z" />
    </symbol>
    <symbol id="icon-twitter" viewBox="0 0 24 24">
      <path fill="#f4f4fd" d="M24 4.559a9.998 9.998 0 0 1-2.784.772l-.051.005a4.923 4.923 0 0 0 2.155-2.685l.01-.035a9.649 9.649 0 0 1-3.057 1.18l-.063.011a4.92 4.92 0 0 0-8.511 3.363c0 .39.033.765.114 1.122A13.914 13.914 0 0 1 1.692 3.171l-.02-.025a4.871 4.871 0 0 0-.671 2.483c0 1.698.859 3.196 2.166 4.082l.017.011a4.842 4.842 0 0 1-2.247-.617l.024.013v.054a4.946 4.946 0 0 0 3.91 4.829l.032.006a4.796 4.796 0 0 1-1.252.162H3.61h.002l-.077.001c-.302 0-.597-.031-.882-.09l.028.005c.655 1.968 2.455 3.372 4.591 3.427h.006a9.824 9.824 0 0 1-6.09 2.098h-.011.001c-.403 0-.79-.018-1.177-.067a13.724 13.724 0 0 0 7.503 2.208h.048-.002c9.054 0 14.004-7.5 14.004-14.001 0-.217-.008-.428-.018-.636a9.923 9.923 0 0 0 2.444-2.519l.022-.035z" style="fill:var(--color3, #f4f4fd)"/>
    </symbol>
    <symbol id="icon-Vector" viewBox="0 0 32 32">
<path d="M32 3.224l-3.224-3.224-12.776 12.776-12.776-12.776-3.224 3.224 12.776 12.776-12.776 12.776 3.224 3.224 12.776-12.776 12.776 12.776 3.224-3.224-12.776-12.776 12.776-12.776z"></path>
</symbol>
<symbol id="icon-icon-send" viewBox="0 0 38 32">
<path d="M38.4 0.006l-38.4 18 12.272 3.787 18.928-14.787-14.397 16.186 0.011 0.005-0.014-0.005v8.814l6.882-6.691 8.72 2.691 5.998-28z"></path>
</symbol>
<symbol id="icon-Vector1" viewBox="0 0 40 32">
<path d="M33.798 1.030c0.659-0.637 1.558-1.030 2.549-1.030 2.008 0 3.639 1.612 3.669 3.612l0 0.003c0.001 0.028 0.001 0.061 0.001 0.095 0 0.965-0.368 1.845-0.972 2.505l0.003-0.003-19.584 24.626c-0.675 0.728-1.636 1.182-2.703 1.182-0.495 0-0.967-0.098-1.399-0.275l0.024 0.009c-0.477-0.197-0.884-0.473-1.224-0.816l-0-0-12.989-13.057c-0.724-0.677-1.176-1.639-1.176-2.706 0-0.502 0.1-0.98 0.281-1.416l-0.009 0.025c0.564-1.368 1.887-2.313 3.431-2.313 0.018 0 0.035 0 0.053 0l-0.003-0c1.038 0.019 1.968 0.467 2.623 1.174l0.002 0.002 10.28 10.332 17.047-21.841c0.032-0.039 0.065-0.074 0.1-0.108l-0.004-0z"></path>
</symbol>
<symbol id="icon-email" viewBox="0 0 43 32">
<path d="M37.343-0.004h-32.008c-2.201 0-3.982 1.8-3.982 4.001l-0.019 24.006c0 2.201 1.8 4.001 4.001 4.001h32.008c2.201 0 4.001-1.8 4.001-4.001v-24.006c0-2.201-1.8-4.001-4.001-4.001zM36.542 8.499l-14.142 8.84c-0.302 0.188-0.668 0.3-1.060 0.3s-0.759-0.112-1.069-0.305l0.009 0.005-14.145-8.842c-0.504-0.301-0.836-0.843-0.836-1.463 0-0.938 0.761-1.699 1.699-1.699 0.349 0 0.673 0.105 0.943 0.286l-0.006-0.004 13.403 8.383 13.403-8.383c0.264-0.176 0.588-0.282 0.937-0.282 0.938 0 1.699 0.761 1.699 1.699 0 0.62-0.332 1.162-0.828 1.459l-0.008 0.004z"></path>
</symbol>
<symbol id="icon-name" viewBox="0 0 32 32">
<path d="M16 16c4.418 0 8-3.582 8-8s-3.582-8-8-8v0c-4.418 0-8 3.582-8 8s3.582 8 8 8v0zM16 20c-5.339 0-16 2.68-16 8v2c0 1.099 0.901 2 2 2h28c1.099 0 2-0.901 2-2v-2c0-5.32-10.661-8-16-8z"></path>
</symbol>
<symbol id="icon-phone" viewBox="0 0 32 32">
<path d="M28.873 21.828l-4.526-0.517c-0.124-0.015-0.267-0.024-0.413-0.024-0.98 0-1.868 0.398-2.51 1.041l-3.277 3.277c-5.083-2.622-9.122-6.661-11.675-11.593l-0.070-0.149 3.299-3.297c0.642-0.642 1.039-1.528 1.039-2.507 0-0.146-0.009-0.289-0.026-0.43l0.002 0.017-0.517-4.491c-0.213-1.784-1.717-3.154-3.542-3.154-0.001 0-0.003 0-0.004 0h-3.083c-2.014 0-3.689 1.674-3.563 3.689 0.943 15.217 13.114 27.371 28.314 28.316 2.014 0.123 3.689-1.551 3.689-3.565v-3.083c0-0.006 0-0.013 0-0.020 0-1.811-1.364-3.304-3.121-3.507l-0.016-0.002z"></path>
</symbol>
  </defs>
</svg>
